<mxfile host="app.diagrams.net" agent="Mozilla/5.0 (Macintosh; Intel Mac OS X 10_15_7) AppleWebKit/537.36 (KHTML, like Gecko) Chrome/133.0.0.0 Safari/537.36" version="26.0.16">
  <diagram name="Page-1" id="LVS2mFPciPOaRrUAyt6g">
    <mxGraphModel dx="1026" dy="629" grid="1" gridSize="10" guides="1" tooltips="1" connect="1" arrows="1" fold="1" page="1" pageScale="1" pageWidth="827" pageHeight="1169" math="0" shadow="0">
      <root>
        <mxCell id="0" />
        <mxCell id="1" parent="0" />
        <mxCell id="4-ePBTTTLUMWPQ_6cVo_-1" value="" style="swimlane;startSize=0;" vertex="1" parent="1">
          <mxGeometry x="40" y="70" width="290" height="360" as="geometry">
            <mxRectangle x="40" y="70" width="50" height="40" as="alternateBounds" />
          </mxGeometry>
        </mxCell>
        <mxCell id="4-ePBTTTLUMWPQ_6cVo_-3" value="Medication List" style="text;strokeColor=none;align=center;fillColor=none;html=1;verticalAlign=middle;whiteSpace=wrap;rounded=0;" vertex="1" parent="4-ePBTTTLUMWPQ_6cVo_-1">
          <mxGeometry x="30" y="10" width="220" height="30" as="geometry" />
        </mxCell>
        <mxCell id="4-ePBTTTLUMWPQ_6cVo_-4" value="" style="whiteSpace=wrap;html=1;aspect=fixed;" vertex="1" parent="4-ePBTTTLUMWPQ_6cVo_-1">
          <mxGeometry x="30" y="90" width="80" height="80" as="geometry" />
        </mxCell>
        <mxCell id="4-ePBTTTLUMWPQ_6cVo_-5" value="User 1" style="text;strokeColor=none;align=center;fillColor=none;html=1;verticalAlign=middle;whiteSpace=wrap;rounded=0;" vertex="1" parent="4-ePBTTTLUMWPQ_6cVo_-1">
          <mxGeometry x="40" y="110" width="60" height="30" as="geometry" />
        </mxCell>
        <mxCell id="4-ePBTTTLUMWPQ_6cVo_-2" value="Main Screen" style="text;strokeColor=none;align=center;fillColor=none;html=1;verticalAlign=middle;whiteSpace=wrap;rounded=0;" vertex="1" parent="1">
          <mxGeometry x="140" y="450" width="60" height="30" as="geometry" />
        </mxCell>
        <mxCell id="4-ePBTTTLUMWPQ_6cVo_-6" value="" style="swimlane;startSize=0;" vertex="1" parent="1">
          <mxGeometry x="40" y="70" width="290" height="360" as="geometry">
            <mxRectangle x="40" y="70" width="50" height="40" as="alternateBounds" />
          </mxGeometry>
        </mxCell>
        <mxCell id="4-ePBTTTLUMWPQ_6cVo_-7" value="Medication List" style="text;strokeColor=none;align=center;fillColor=none;html=1;verticalAlign=middle;whiteSpace=wrap;rounded=0;" vertex="1" parent="4-ePBTTTLUMWPQ_6cVo_-6">
          <mxGeometry x="30" y="10" width="220" height="30" as="geometry" />
        </mxCell>
        <mxCell id="4-ePBTTTLUMWPQ_6cVo_-8" value="" style="whiteSpace=wrap;html=1;aspect=fixed;" vertex="1" parent="4-ePBTTTLUMWPQ_6cVo_-6">
          <mxGeometry x="30" y="90" width="80" height="80" as="geometry" />
        </mxCell>
        <mxCell id="4-ePBTTTLUMWPQ_6cVo_-9" value="User 1" style="text;strokeColor=none;align=center;fillColor=none;html=1;verticalAlign=middle;whiteSpace=wrap;rounded=0;" vertex="1" parent="4-ePBTTTLUMWPQ_6cVo_-6">
          <mxGeometry x="40" y="110" width="60" height="30" as="geometry" />
        </mxCell>
        <mxCell id="4-ePBTTTLUMWPQ_6cVo_-14" value="" style="whiteSpace=wrap;html=1;aspect=fixed;" vertex="1" parent="4-ePBTTTLUMWPQ_6cVo_-6">
          <mxGeometry x="180" y="90" width="80" height="80" as="geometry" />
        </mxCell>
        <mxCell id="4-ePBTTTLUMWPQ_6cVo_-15" value="User 2" style="text;strokeColor=none;align=center;fillColor=none;html=1;verticalAlign=middle;whiteSpace=wrap;rounded=0;" vertex="1" parent="4-ePBTTTLUMWPQ_6cVo_-6">
          <mxGeometry x="190" y="110" width="60" height="30" as="geometry" />
        </mxCell>
      </root>
    </mxGraphModel>
  </diagram>
</mxfile>
